<svg xmlns="http://www.w3.org/2000/svg" viewBox="0 0 360 190" role="img" aria-labelledby="title desc">
  <title id="title">Esports data challenge card cyan</title>
  <desc id="desc">A high tech broadcast card with holographic data screens and a central arena podium.</desc>
  <defs>
    <linearGradient id="bg" x1="0" y1="0" x2="1" y2="1">
      <stop offset="0" stop-color="#031a2c"/>
      <stop offset=".52" stop-color="#07101c"/>
      <stop offset="1" stop-color="#0d0724"/>
    </linearGradient>
    <filter id="glow"><feGaussianBlur stdDeviation="5" result="b"/><feMerge><feMergeNode in="b"/><feMergeNode in="SourceGraphic"/></feMerge></filter>
  </defs>
  <rect width="360" height="190" rx="18" fill="url(#bg)"/>
  <path d="M0 140c75-28 134-33 176-15 57 24 111 18 184-20v85H0z" fill="#02050d"/>
  <g opacity=".34">
    <path d="M32 162h296M72 138h216M112 120h136" stroke="#fff"/>
    <path d="M180 112 42 190M180 112l138 78M180 112v78" stroke="#15f8ff"/>
  </g>
  <g filter="url(#glow)">
    <rect x="32" y="34" width="112" height="76" rx="12" fill="#061b34" stroke="#15f8ff" stroke-width="3"/>
    <rect x="216" y="34" width="112" height="76" rx="12" fill="#10091d" stroke="#ff2bd6" stroke-width="3"/>
    <path d="M52 58h70M52 79h48M236 58h70M236 79h48" stroke="#fff" stroke-opacity=".5" stroke-width="5" stroke-linecap="round"/>
    <path d="M136 126l30-32h28l30 32-23 32h-42z" fill="#07101c" stroke="#d8aa5c" stroke-width="4"/>
    <path d="M152 134h56" stroke="#15f8ff" stroke-width="5" stroke-linecap="round"/>
  </g>
</svg>
