<svg xmlns="http://www.w3.org/2000/svg" viewBox="0 0 360 190" role="img" aria-labelledby="title desc">
  <title id="title">Esports challenge card violet</title>
  <desc id="desc">A violet high tech route map card with arena rails and HUD panels.</desc>
  <defs>
    <linearGradient id="bg" x1="0" y1="0" x2="1" y2="1">
      <stop offset="0" stop-color="#150a32"/>
      <stop offset=".55" stop-color="#07101c"/>
      <stop offset="1" stop-color="#092435"/>
    </linearGradient>
    <filter id="glow"><feGaussianBlur stdDeviation="5" result="b"/><feMerge><feMergeNode in="b"/><feMergeNode in="SourceGraphic"/></feMerge></filter>
  </defs>
  <rect width="360" height="190" rx="18" fill="url(#bg)"/>
  <path d="M0 140c58-24 116-27 174-9 75 24 128 14 186-25v84H0z" fill="#02050d"/>
  <g filter="url(#glow)">
    <path d="M46 128c45-60 91-60 137 0 43-58 87-58 131 0" fill="none" stroke="#9c7cff" stroke-width="6" stroke-linecap="round"/>
    <path d="M64 145h232" stroke="#15f8ff" stroke-width="5" stroke-linecap="round"/>
    <circle cx="88" cy="128" r="14" fill="#07101c" stroke="#d8aa5c" stroke-width="4"/>
    <circle cx="180" cy="128" r="14" fill="#07101c" stroke="#d8aa5c" stroke-width="4"/>
    <circle cx="272" cy="128" r="14" fill="#07101c" stroke="#d8aa5c" stroke-width="4"/>
    <rect x="72" y="38" width="216" height="50" rx="12" fill="#07101c" stroke="#9c7cff" stroke-width="3"/>
    <path d="M96 58h66M198 58h66" stroke="#9c7cff" stroke-width="5" stroke-linecap="round"/>
  </g>
</svg>
