<svg xmlns="http://www.w3.org/2000/svg" viewBox="0 0 360 190" role="img" aria-labelledby="title desc">
  <title id="title">Cashless public service challenge artwork</title>
  <desc id="desc">A digital payment civic service scene with gold and cyan lighting.</desc>
  <defs>
    <linearGradient id="bg" x1="0" y1="0" x2="1" y2="1">
      <stop offset="0" stop-color="#2b1a09"/>
      <stop offset=".54" stop-color="#0d1629"/>
      <stop offset="1" stop-color="#07101c"/>
    </linearGradient>
    <radialGradient id="glow" cx=".42" cy=".38" r=".64">
      <stop offset="0" stop-color="#f0c97d" stop-opacity=".36"/>
      <stop offset="1" stop-color="#f0c97d" stop-opacity="0"/>
    </radialGradient>
  </defs>
  <rect width="360" height="190" rx="18" fill="url(#bg)"/>
  <rect width="360" height="190" rx="18" fill="url(#glow)"/>
  <path d="M0 142c62-24 125-23 188-2 56 19 107 13 172-21v71H0z" fill="#03101d" opacity=".76"/>
  <g transform="translate(76 34)">
    <rect x="7" y="10" width="96" height="142" rx="20" fill="#132033" stroke="#f0c97d" stroke-width="3"/>
    <rect x="22" y="31" width="66" height="80" rx="10" fill="#07101c"/>
    <path d="M32 50h45M32 70h45M32 90h31" stroke="#32d4d1" stroke-width="5" stroke-linecap="round"/>
    <circle cx="55" cy="128" r="8" fill="#f0c97d"/>
    <rect x="142" y="55" width="100" height="67" rx="18" fill="#10253f" stroke="#32d4d1" stroke-opacity=".65"/>
    <path d="M160 80h64M160 100h42" stroke="#f0c97d" stroke-width="6" stroke-linecap="round"/>
    <path d="M140 139c19-21 42-31 70-31 28 0 51 10 70 31z" fill="#17283d"/>
  </g>
</svg>
