<svg xmlns="http://www.w3.org/2000/svg" viewBox="0 0 360 190" role="img" aria-labelledby="title desc">
  <title id="title">AI jobs challenge artwork</title>
  <desc id="desc">A futuristic worker and AI silhouette inside a civic arena.</desc>
  <defs>
    <linearGradient id="bg" x1="0" y1="0" x2="1" y2="1">
      <stop offset="0" stop-color="#09233f"/>
      <stop offset=".58" stop-color="#071321"/>
      <stop offset="1" stop-color="#271225"/>
    </linearGradient>
    <radialGradient id="glow" cx=".68" cy=".34" r=".62">
      <stop offset="0" stop-color="#32d4d1" stop-opacity=".38"/>
      <stop offset="1" stop-color="#32d4d1" stop-opacity="0"/>
    </radialGradient>
  </defs>
  <rect width="360" height="190" rx="18" fill="url(#bg)"/>
  <rect width="360" height="190" rx="18" fill="url(#glow)"/>
  <path d="M0 143c62-24 116-31 176-18 60 13 111 14 184-16v81H0z" fill="#03101d" opacity=".72"/>
  <g opacity=".22" stroke="#5be7e1">
    <path d="M30 40h90M260 52h70M34 154h300"/>
    <path d="M62 154V93M286 154V79"/>
  </g>
  <g transform="translate(190 34)">
    <circle cx="76" cy="58" r="43" fill="#132033" stroke="#5be7e1" stroke-width="3"/>
    <path d="M48 58c18-26 38-31 60-13 2 31-13 49-47 55-20-10-27-24-13-42z" fill="#1b2d45"/>
    <circle cx="63" cy="61" r="5" fill="#5be7e1"/>
    <circle cx="91" cy="61" r="5" fill="#5be7e1"/>
    <path d="M68 82c15 7 28 5 39-6" stroke="#d8aa5c" stroke-width="4" stroke-linecap="round"/>
    <path d="M34 129c13-25 34-38 63-38s50 13 64 38z" fill="#123f66"/>
  </g>
  <g transform="translate(58 38)">
    <path d="M18 132c11-34 35-51 73-51s62 17 74 51z" fill="#17345a"/>
    <circle cx="85" cy="54" r="45" fill="#d68b62"/>
    <path d="M43 50c20-38 69-49 111-18-24 2-40 10-54 24-29-3-48-4-57-6z" fill="#271320"/>
    <path d="M61 67c10-6 20-6 29 0M105 67c11-6 20-6 29 0" stroke="#07101c" stroke-width="5" stroke-linecap="round"/>
    <path d="M78 96c19 14 41 14 62 0" stroke="#33111a" stroke-width="5" stroke-linecap="round"/>
    <path d="M44 121c18-13 39-20 64-20 21 0 40 5 57 15" fill="none" stroke="#f0c97d" stroke-width="4" stroke-linecap="round"/>
  </g>
</svg>
