<svg xmlns="http://www.w3.org/2000/svg" viewBox="0 0 360 190" role="img" aria-labelledby="title desc">
  <title id="title">Remote work challenge artwork</title>
  <desc id="desc">A home office city scene in a premium debate card style.</desc>
  <defs>
    <linearGradient id="bg" x1="0" y1="0" x2="1" y2="1">
      <stop offset="0" stop-color="#072a36"/>
      <stop offset=".58" stop-color="#09172a"/>
      <stop offset="1" stop-color="#17233c"/>
    </linearGradient>
    <radialGradient id="glow" cx=".35" cy=".36" r=".65">
      <stop offset="0" stop-color="#62d49c" stop-opacity=".34"/>
      <stop offset="1" stop-color="#62d49c" stop-opacity="0"/>
    </radialGradient>
  </defs>
  <rect width="360" height="190" rx="18" fill="url(#bg)"/>
  <rect width="360" height="190" rx="18" fill="url(#glow)"/>
  <path d="M0 139c78-30 149-28 213-5 45 16 92 12 147-10v66H0z" fill="#03101d" opacity=".72"/>
  <g transform="translate(54 42)">
    <rect x="12" y="62" width="154" height="70" rx="14" fill="#132033" stroke="#62d49c" stroke-opacity=".62"/>
    <rect x="35" y="82" width="109" height="48" rx="8" fill="#07101c"/>
    <path d="M44 113h92" stroke="#32d4d1" stroke-width="5" stroke-linecap="round"/>
    <path d="M70 142h48" stroke="#d8aa5c" stroke-width="7" stroke-linecap="round"/>
    <circle cx="184" cy="58" r="39" fill="#d68b62"/>
    <path d="M148 52c18-36 54-45 88-17-20 1-33 8-45 19-22-1-36-2-43-2z" fill="#221323"/>
    <path d="M160 112c14-23 34-34 60-34 27 0 47 12 61 36z" fill="#164b49"/>
  </g>
  <g fill="#1b2d45" opacity=".8">
    <rect x="266" y="46" width="18" height="94" rx="4"/>
    <rect x="292" y="26" width="22" height="114" rx="4"/>
    <rect x="322" y="70" width="16" height="70" rx="4"/>
  </g>
</svg>
