<svg xmlns="http://www.w3.org/2000/svg" viewBox="0 0 260 170" role="img" aria-labelledby="title desc">
  <title id="title">Boss battle mode artwork</title>
  <desc id="desc">A hooded AI boss silhouette in an arena card style.</desc>
  <defs>
    <linearGradient id="bg" x1="0" y1="0" x2="1" y2="1">
      <stop offset="0" stop-color="#071321"/>
      <stop offset=".52" stop-color="#12102c"/>
      <stop offset="1" stop-color="#061627"/>
    </linearGradient>
    <radialGradient id="glow" cx=".64" cy=".36" r=".62">
      <stop offset="0" stop-color="#4e9cff" stop-opacity=".4"/>
      <stop offset="1" stop-color="#4e9cff" stop-opacity="0"/>
    </radialGradient>
  </defs>
  <rect width="260" height="170" rx="18" fill="url(#bg)"/>
  <rect width="260" height="170" rx="18" fill="url(#glow)"/>
  <path d="M0 128c50-20 98-25 145-13 42 11 75 7 115-19v74H0z" fill="#030814" opacity=".78"/>
  <g transform="translate(64 23)">
    <path d="M28 126c4-50 18-87 43-110 29 20 49 57 59 110z" fill="#0d1629" stroke="#5be7e1" stroke-opacity=".36"/>
    <path d="M50 62c14-23 42-25 60-2-2 21-14 34-36 39-20-4-32-16-24-37z" fill="#17283d"/>
    <circle cx="68" cy="67" r="5" fill="#5be7e1"/>
    <circle cx="93" cy="67" r="5" fill="#ff8179"/>
    <path d="M61 92c18 8 34 7 49-4" stroke="#d8aa5c" stroke-width="4" stroke-linecap="round"/>
    <path d="M18 137h125" stroke="#5be7e1" stroke-width="5" stroke-linecap="round" opacity=".7"/>
  </g>
</svg>
