<svg xmlns="http://www.w3.org/2000/svg" viewBox="0 0 260 170" role="img" aria-labelledby="title desc">
  <title id="title">One versus tribunal esports mode</title>
  <desc id="desc">A solo podium facing a wall of neon audience and statistic panels.</desc>
  <defs>
    <linearGradient id="bg" x1="0" y1="0" x2="1" y2="1">
      <stop offset="0" stop-color="#031f1a"/>
      <stop offset=".55" stop-color="#06101d"/>
      <stop offset="1" stop-color="#071d2d"/>
    </linearGradient>
    <filter id="glow"><feGaussianBlur stdDeviation="4" result="b"/><feMerge><feMergeNode in="b"/><feMergeNode in="SourceGraphic"/></feMerge></filter>
  </defs>
  <rect width="260" height="170" rx="18" fill="url(#bg)"/>
  <path d="M0 130c70-20 119-22 146-7 42 22 80 15 114-11v58H0z" fill="#02050d"/>
  <g opacity=".72">
    <g fill="#132033" stroke="#62d49c" stroke-opacity=".65">
      <rect x="24" y="36" width="38" height="42" rx="7"/>
      <rect x="72" y="26" width="38" height="52" rx="7"/>
      <rect x="150" y="26" width="38" height="52" rx="7"/>
      <rect x="198" y="36" width="38" height="42" rx="7"/>
    </g>
    <path d="M34 52h18M82 46h18M160 46h18M208 52h18" stroke="#62d49c" stroke-width="4" stroke-linecap="round"/>
  </g>
  <g filter="url(#glow)">
    <path d="M91 113l28-34h22l28 34-18 34h-42z" fill="#07101c" stroke="#15f8ff" stroke-width="4"/>
    <path d="M112 83h36l9 32h-54z" fill="#061b34" stroke="#62d49c" stroke-width="3"/>
    <path d="M50 134h160" stroke="#15f8ff" stroke-width="5" stroke-linecap="round"/>
    <path d="M130 48v25" stroke="#f0c97d" stroke-width="5" stroke-linecap="round"/>
  </g>
</svg>
